<svg width="1200" height="800" viewBox="0 0 1200 800" fill="none" xmlns="http://www.w3.org/2000/svg">
  <rect width="1200" height="800" rx="40" fill="#0B1728"/>
  <rect x="38" y="38" width="1124" height="724" rx="30" fill="url(#bg1)" stroke="#28415F"/>
  <rect x="92" y="98" width="1016" height="72" rx="20" fill="#10233A"/>
  <circle cx="138" cy="134" r="10" fill="#FF8F5C"/>
  <circle cx="170" cy="134" r="10" fill="#3DD6C6"/>
  <circle cx="202" cy="134" r="10" fill="#6F86A6"/>
  <rect x="92" y="214" width="566" height="420" rx="28" fill="#0F2138"/>
  <rect x="690" y="214" width="418" height="196" rx="28" fill="#122946"/>
  <rect x="690" y="438" width="418" height="196" rx="28" fill="#122946"/>
  <rect x="140" y="282" width="248" height="18" rx="9" fill="#3DD6C6"/>
  <rect x="140" y="328" width="356" height="18" rx="9" fill="#D8E3F1" fill-opacity="0.9"/>
  <rect x="140" y="362" width="298" height="18" rx="9" fill="#90A4BE" fill-opacity="0.75"/>
  <rect x="140" y="430" width="172" height="58" rx="18" fill="#FF8F5C"/>
  <rect x="338" y="430" width="172" height="58" rx="18" stroke="#3A5372"/>
  <text x="140" y="570" fill="#DCE8F4" font-family="Arial, sans-serif" font-size="78" font-weight="700">Studio Spatia</text>
  <text x="140" y="620" fill="#8FA6C2" font-family="Arial, sans-serif" font-size="30">Website design and development</text>
  <text x="738" y="290" fill="#3DD6C6" font-family="Arial, sans-serif" font-size="28" font-weight="700">ARCHITECTURE</text>
  <rect x="738" y="320" width="322" height="14" rx="7" fill="#D8E3F1" fill-opacity="0.9"/>
  <rect x="738" y="350" width="280" height="14" rx="7" fill="#90A4BE" fill-opacity="0.75"/>
  <text x="738" y="514" fill="#FF8F5C" font-family="Arial, sans-serif" font-size="28" font-weight="700">MODERN BRAND PRESENCE</text>
  <rect x="738" y="544" width="280" height="14" rx="7" fill="#D8E3F1" fill-opacity="0.9"/>
  <rect x="738" y="574" width="238" height="14" rx="7" fill="#90A4BE" fill-opacity="0.75"/>
  <defs>
    <linearGradient id="bg1" x1="70" y1="72" x2="1110" y2="728" gradientUnits="userSpaceOnUse">
      <stop stop-color="#0F223A"/>
      <stop offset="1" stop-color="#091525"/>
    </linearGradient>
  </defs>
</svg>
