<svg width="1200" height="800" viewBox="0 0 1200 800" fill="none" xmlns="http://www.w3.org/2000/svg">
  <rect width="1200" height="800" rx="40" fill="#08111E"/>
  <rect x="42" y="42" width="1116" height="716" rx="30" fill="url(#bg5)" stroke="#223A55"/>
  <text x="354" y="156" fill="#E3ECF6" font-family="Arial, sans-serif" font-size="66" font-weight="700">Tic Tac Toe</text>
  <rect x="330" y="214" width="540" height="540" rx="36" fill="#10233A"/>
  <path d="M510 264V704" stroke="#3A5372" stroke-width="14" stroke-linecap="round"/>
  <path d="M690 264V704" stroke="#3A5372" stroke-width="14" stroke-linecap="round"/>
  <path d="M380 394H820" stroke="#3A5372" stroke-width="14" stroke-linecap="round"/>
  <path d="M380 574H820" stroke="#3A5372" stroke-width="14" stroke-linecap="round"/>
  <path d="M414 298L482 366" stroke="#3DD6C6" stroke-width="18" stroke-linecap="round"/>
  <path d="M482 298L414 366" stroke="#3DD6C6" stroke-width="18" stroke-linecap="round"/>
  <circle cx="600" cy="332" r="42" stroke="#FF8F5C" stroke-width="18"/>
  <path d="M714 298L782 366" stroke="#3DD6C6" stroke-width="18" stroke-linecap="round"/>
  <path d="M782 298L714 366" stroke="#3DD6C6" stroke-width="18" stroke-linecap="round"/>
  <circle cx="420" cy="512" r="42" stroke="#FF8F5C" stroke-width="18"/>
  <path d="M534 478L602 546" stroke="#3DD6C6" stroke-width="18" stroke-linecap="round"/>
  <path d="M602 478L534 546" stroke="#3DD6C6" stroke-width="18" stroke-linecap="round"/>
  <circle cx="780" cy="692" r="42" stroke="#FF8F5C" stroke-width="18"/>
  <defs>
    <linearGradient id="bg5" x1="84" y1="70" x2="1110" y2="742" gradientUnits="userSpaceOnUse">
      <stop stop-color="#10233C"/>
      <stop offset="1" stop-color="#0A1425"/>
    </linearGradient>
  </defs>
</svg>
